# xmcd CD database file generated by GCD 2.95
# 
# Track frame offsets:
#       183
#       19698
#       38385
#       52998
# 
# Disc length: 1041 seconds
# 
# Revision: 3
# Processed by: cddbd v1.4b41PL1 Copyright (c) Steve Scherf et al.
# Submitted via: GCD 2.95
# 
DISCID=20040f04
DTITLE=Hollies - He Ain't Heavy, He's My Brother (Maxi)
DYEAR=1900
DGENRE=
TTITLE0=He Ain't Heavy, He's My Brother
TTITLE1=The Air That I Breathe
TTITLE2=Bus Stop
TTITLE3=Blowin' In The Wind (Live from Mainz)
EXTD=
EXTT0=
EXTT1=
EXTT2=
EXTT3=
PLAYORDER=
